# xmcd
#
# Track frame offsets: 
#        150
#        21273
#        43671
#        65094
#        87342
#        108765
#        132288
#        156186
#        179709
#        201432
#        226155
#
# Disc length: 3331 seconds
#
# Revision: 0
# Processed by: cddbd v1.5.2PL0 Copyright (c) Steve Scherf et al.
# Submitted via: ExactAudioCopyFreeDBPlugin 1.0
#
DISCID=980d010b
DTITLE=Bryce Janey - Burning Flame
DYEAR=2013
DGENRE=Blues-Rock
TTITLE0=Chrome Horse
TTITLE1=Long Ways Home
TTITLE2=Guitar Playing Fool
TTITLE3=Can You Feel It
TTITLE4=The Stealer
TTITLE5=Stone Cold Killer
TTITLE6=The Revenuers
TTITLE7=Special Ryder Blues
TTITLE8=The Last Goodbye
TTITLE9=Organic Man
TTITLE10=Burning Flame
EXTD=
EXTT0=
EXTT1=
EXTT2=
EXTT3=
EXTT4=
EXTT5=
EXTT6=
EXTT7=
EXTT8=
EXTT9=
EXTT10=
PLAYORDER=
